# xmcd CD database file
#
# Track frame offsets:
#	150
#	24707
#	38465
#	61252
#	82342
#	103152
#	126787
#	146157
#	169417
#	193070
#
# Disc length: 2852 seconds
#
# Revision: 2
# Processed by: cddbd v1.5.2PL0 Copyright (c) Steve Scherf et al.
# Submitted via: CDex 1.70beta2
#
DISCID=910b220a
DTITLE=中島みゆき - はじめまして
DYEAR=1984
DGENRE=J-POP(J)
TTITLE0=僕は青い鳥
TTITLE1=幸福論
TTITLE2=ひとり
TTITLE3=生まれた時から
TTITLE4=彼女によろしく
TTITLE5=不良
TTITLE6=シニカル・ムーン
TTITLE7=春までなんぼ
TTITLE8=僕たちの将来
TTITLE9=はじめまして
EXTD=YEAR: 1984
EXTT0=
EXTT1=
EXTT2=
EXTT3=
EXTT4=
EXTT5=
EXTT6=
EXTT7=
EXTT8=
EXTT9=
PLAYORDER=
